<mxfile host="app.diagrams.net" modified="2022-12-02T12:58:04.377Z" agent="5.0 (Windows NT 10.0; Win64; x64) AppleWebKit/537.36 (KHTML, like Gecko) Chrome/107.0.0.0 Safari/537.36 Edg/107.0.1418.62" etag="5aDeUuax6e_rkDWhy9z_" version="20.6.0" type="github">
  <diagram id="C-KsoGlulOUO2hJAgldA" name="Страница 1">
    <mxGraphModel dx="2500" dy="1444" grid="1" gridSize="10" guides="1" tooltips="1" connect="1" arrows="1" fold="1" page="1" pageScale="1" pageWidth="1169" pageHeight="1654" math="0" shadow="0">
      <root>
        <mxCell id="0" />
        <mxCell id="1" parent="0" />
        <mxCell id="n-Qkyq2medlDeFvWfCEv-7" value="верификация" style="shape=umlLifeline;perimeter=lifelinePerimeter;whiteSpace=wrap;html=1;container=1;collapsible=0;recursiveResize=0;outlineConnect=0;fontSize=11;" parent="1" vertex="1">
          <mxGeometry x="319" y="462" width="80" height="800" as="geometry" />
        </mxCell>
        <mxCell id="n-Qkyq2medlDeFvWfCEv-10" value="" style="html=1;points=[];perimeter=orthogonalPerimeter;fontSize=11;" parent="n-Qkyq2medlDeFvWfCEv-7" vertex="1">
          <mxGeometry x="35" y="80" width="10" height="80" as="geometry" />
        </mxCell>
        <mxCell id="n-Qkyq2medlDeFvWfCEv-11" value="ввод личных данных" style="html=1;verticalAlign=bottom;endArrow=block;rounded=0;fontSize=11;" parent="n-Qkyq2medlDeFvWfCEv-7" edge="1">
          <mxGeometry width="80" relative="1" as="geometry">
            <mxPoint x="-120" y="80" as="sourcePoint" />
            <mxPoint x="35" y="80" as="targetPoint" />
          </mxGeometry>
        </mxCell>
        <mxCell id="n-Qkyq2medlDeFvWfCEv-14" value="проверка личных&lt;br&gt;данных" style="edgeStyle=orthogonalEdgeStyle;html=1;align=left;spacingLeft=2;endArrow=block;rounded=0;fontSize=11;" parent="n-Qkyq2medlDeFvWfCEv-7" target="n-Qkyq2medlDeFvWfCEv-10" edge="1">
          <mxGeometry relative="1" as="geometry">
            <mxPoint x="45" y="100" as="sourcePoint" />
            <Array as="points">
              <mxPoint x="75" y="100" />
              <mxPoint x="75" y="120" />
            </Array>
            <mxPoint x="50" y="120" as="targetPoint" />
          </mxGeometry>
        </mxCell>
        <mxCell id="D1f-Gk4NOec0cBXqZGk4-6" value="ввод ветеринарных требований" style="html=1;verticalAlign=bottom;endArrow=block;rounded=0;" parent="n-Qkyq2medlDeFvWfCEv-7" edge="1">
          <mxGeometry width="80" relative="1" as="geometry">
            <mxPoint x="-115" y="230" as="sourcePoint" />
            <mxPoint x="195" y="230" as="targetPoint" />
          </mxGeometry>
        </mxCell>
        <mxCell id="n-Qkyq2medlDeFvWfCEv-1" value="&lt;font style=&quot;font-size: 11px;&quot;&gt;Участник&lt;br&gt;соревнований&lt;/font&gt;" style="shape=umlLifeline;perimeter=lifelinePerimeter;whiteSpace=wrap;html=1;container=1;collapsible=0;recursiveResize=0;outlineConnect=0;" parent="1" vertex="1">
          <mxGeometry x="159" y="462" width="80" height="800" as="geometry" />
        </mxCell>
        <mxCell id="5P6IDjR8-ZtZ2jc4AADI-6" value="" style="html=1;points=[];perimeter=orthogonalPerimeter;" parent="n-Qkyq2medlDeFvWfCEv-1" vertex="1">
          <mxGeometry x="35" y="190" width="10" height="130" as="geometry" />
        </mxCell>
        <mxCell id="5P6IDjR8-ZtZ2jc4AADI-17" value="" style="html=1;points=[];perimeter=orthogonalPerimeter;" parent="n-Qkyq2medlDeFvWfCEv-1" vertex="1">
          <mxGeometry x="35" y="360" width="10" height="320" as="geometry" />
        </mxCell>
        <mxCell id="5P6IDjR8-ZtZ2jc4AADI-12" value="соревнования" style="shape=umlLifeline;perimeter=lifelinePerimeter;whiteSpace=wrap;html=1;container=1;collapsible=0;recursiveResize=0;outlineConnect=0;fontSize=11;" parent="1" vertex="1">
          <mxGeometry x="639" y="462" width="80" height="800" as="geometry" />
        </mxCell>
        <mxCell id="jB8EC2jtaiV8_9WjrZOE-9" value="" style="html=1;points=[];perimeter=orthogonalPerimeter;" parent="5P6IDjR8-ZtZ2jc4AADI-12" vertex="1">
          <mxGeometry x="35" y="600" width="10" height="80" as="geometry" />
        </mxCell>
        <mxCell id="n-Qkyq2medlDeFvWfCEv-8" value="регистрация" style="shape=umlLifeline;perimeter=lifelinePerimeter;whiteSpace=wrap;html=1;container=1;collapsible=0;recursiveResize=0;outlineConnect=0;fontSize=11;" parent="1" vertex="1">
          <mxGeometry x="479" y="462" width="80" height="800" as="geometry" />
        </mxCell>
        <mxCell id="n-Qkyq2medlDeFvWfCEv-16" value="" style="html=1;points=[];perimeter=orthogonalPerimeter;fontSize=11;" parent="n-Qkyq2medlDeFvWfCEv-8" vertex="1">
          <mxGeometry x="35" y="190" width="10" height="130" as="geometry" />
        </mxCell>
        <mxCell id="5P6IDjR8-ZtZ2jc4AADI-9" value="" style="html=1;points=[];perimeter=orthogonalPerimeter;" parent="n-Qkyq2medlDeFvWfCEv-8" vertex="1">
          <mxGeometry x="35" y="360" width="10" height="280" as="geometry" />
        </mxCell>
        <mxCell id="D1f-Gk4NOec0cBXqZGk4-5" value="проверка&lt;br&gt;квалификационной&lt;br&gt;книжки" style="edgeStyle=orthogonalEdgeStyle;html=1;align=left;spacingLeft=2;endArrow=block;rounded=0;" parent="n-Qkyq2medlDeFvWfCEv-8" edge="1">
          <mxGeometry relative="1" as="geometry">
            <mxPoint x="45" y="261" as="sourcePoint" />
            <Array as="points">
              <mxPoint x="75" y="261" />
              <mxPoint x="75" y="281" />
            </Array>
            <mxPoint x="45" y="281" as="targetPoint" />
            <mxPoint as="offset" />
          </mxGeometry>
        </mxCell>
        <mxCell id="D1f-Gk4NOec0cBXqZGk4-7" value="список активных соревнований" style="html=1;verticalAlign=bottom;endArrow=open;dashed=1;endSize=8;rounded=0;" parent="n-Qkyq2medlDeFvWfCEv-8" target="5P6IDjR8-ZtZ2jc4AADI-6" edge="1">
          <mxGeometry relative="1" as="geometry">
            <mxPoint x="35" y="320" as="sourcePoint" />
            <mxPoint x="-45" y="320" as="targetPoint" />
          </mxGeometry>
        </mxCell>
        <mxCell id="jB8EC2jtaiV8_9WjrZOE-12" value="проверка уровня&lt;br&gt;сложности" style="edgeStyle=orthogonalEdgeStyle;html=1;align=left;spacingLeft=2;endArrow=block;rounded=0;" parent="n-Qkyq2medlDeFvWfCEv-8" edge="1">
          <mxGeometry relative="1" as="geometry">
            <mxPoint x="45" y="394" as="sourcePoint" />
            <Array as="points">
              <mxPoint x="75" y="394" />
              <mxPoint x="75" y="414" />
            </Array>
            <mxPoint x="45" y="414" as="targetPoint" />
          </mxGeometry>
        </mxCell>
        <mxCell id="n-Qkyq2medlDeFvWfCEv-21" value="результаты соревнований" style="shape=umlLifeline;perimeter=lifelinePerimeter;whiteSpace=wrap;html=1;container=1;collapsible=0;recursiveResize=0;outlineConnect=0;fontSize=11;" parent="1" vertex="1">
          <mxGeometry x="959" y="462" width="80" height="800" as="geometry" />
        </mxCell>
        <mxCell id="cVRYE5V5yGpgYkkMmDAI-1" value="информация о результатах" style="html=1;verticalAlign=bottom;endArrow=open;dashed=1;endSize=8;rounded=0;" parent="n-Qkyq2medlDeFvWfCEv-21" edge="1">
          <mxGeometry relative="1" as="geometry">
            <mxPoint x="35" y="759.7199999999999" as="sourcePoint" />
            <mxPoint x="-755" y="759.7199999999999" as="targetPoint" />
          </mxGeometry>
        </mxCell>
        <mxCell id="5P6IDjR8-ZtZ2jc4AADI-20" value="" style="html=1;points=[];perimeter=orthogonalPerimeter;" parent="n-Qkyq2medlDeFvWfCEv-21" vertex="1">
          <mxGeometry x="35" y="719.44" width="10" height="40.56" as="geometry" />
        </mxCell>
        <mxCell id="jB8EC2jtaiV8_9WjrZOE-7" value="" style="html=1;points=[];perimeter=orthogonalPerimeter;" parent="n-Qkyq2medlDeFvWfCEv-21" vertex="1">
          <mxGeometry x="-765" y="719.44" width="10" height="40.56" as="geometry" />
        </mxCell>
        <mxCell id="5P6IDjR8-ZtZ2jc4AADI-19" value="запрос на информацию о результатах соревнований" style="html=1;verticalAlign=bottom;endArrow=block;rounded=0;" parent="n-Qkyq2medlDeFvWfCEv-21" edge="1">
          <mxGeometry width="80" relative="1" as="geometry">
            <mxPoint x="-755" y="719.44" as="sourcePoint" />
            <mxPoint x="35" y="719.44" as="targetPoint" />
          </mxGeometry>
        </mxCell>
        <mxCell id="n-Qkyq2medlDeFvWfCEv-2" value="" style="shape=umlActor;verticalLabelPosition=bottom;verticalAlign=top;html=1;" parent="1" vertex="1">
          <mxGeometry x="189.49" y="423.67" width="19.03" height="38.33" as="geometry" />
        </mxCell>
        <mxCell id="n-Qkyq2medlDeFvWfCEv-9" value="" style="html=1;points=[];perimeter=orthogonalPerimeter;fontSize=11;" parent="1" vertex="1">
          <mxGeometry x="194" y="542" width="10" height="80" as="geometry" />
        </mxCell>
        <mxCell id="5P6IDjR8-ZtZ2jc4AADI-2" value="Сайт Аджилити (запись на соревнования)" style="text;html=1;strokeColor=none;fillColor=none;align=center;verticalAlign=middle;whiteSpace=wrap;rounded=0;" parent="1" vertex="1">
          <mxGeometry x="129" y="392" width="260" height="30" as="geometry" />
        </mxCell>
        <mxCell id="5P6IDjR8-ZtZ2jc4AADI-8" value="выбор даты и время соревнований" style="html=1;verticalAlign=bottom;endArrow=block;rounded=0;" parent="1" edge="1">
          <mxGeometry width="80" relative="1" as="geometry">
            <mxPoint x="204" y="822" as="sourcePoint" />
            <mxPoint x="514.0000000000001" y="822" as="targetPoint" />
          </mxGeometry>
        </mxCell>
        <mxCell id="n-Qkyq2medlDeFvWfCEv-15" value="выбор ростовой категории собаки/собак" style="html=1;verticalAlign=bottom;endArrow=block;rounded=0;fontSize=11;" parent="1" source="5P6IDjR8-ZtZ2jc4AADI-6" target="n-Qkyq2medlDeFvWfCEv-16" edge="1">
          <mxGeometry width="80" relative="1" as="geometry">
            <mxPoint x="204" y="652" as="sourcePoint" />
            <mxPoint x="514" y="652" as="targetPoint" />
            <Array as="points">
              <mxPoint x="469" y="652" />
            </Array>
          </mxGeometry>
        </mxCell>
        <mxCell id="D1f-Gk4NOec0cBXqZGk4-3" value="выбор породы" style="html=1;verticalAlign=bottom;endArrow=block;rounded=0;" parent="1" target="n-Qkyq2medlDeFvWfCEv-16" edge="1">
          <mxGeometry width="80" relative="1" as="geometry">
            <mxPoint x="204" y="672.0000000000001" as="sourcePoint" />
            <mxPoint x="514" y="672.0000000000001" as="targetPoint" />
          </mxGeometry>
        </mxCell>
        <mxCell id="cVRYE5V5yGpgYkkMmDAI-2" value="выбор уровня сложности" style="html=1;verticalAlign=bottom;endArrow=block;rounded=0;" parent="1" edge="1">
          <mxGeometry width="80" relative="1" as="geometry">
            <mxPoint x="204" y="843" as="sourcePoint" />
            <mxPoint x="514.0000000000001" y="843" as="targetPoint" />
          </mxGeometry>
        </mxCell>
        <mxCell id="jB8EC2jtaiV8_9WjrZOE-3" value="оплата" style="shape=umlLifeline;perimeter=lifelinePerimeter;whiteSpace=wrap;html=1;container=1;collapsible=0;recursiveResize=0;outlineConnect=0;fontSize=11;" parent="1" vertex="1">
          <mxGeometry x="799" y="462" width="80" height="800" as="geometry" />
        </mxCell>
        <mxCell id="jB8EC2jtaiV8_9WjrZOE-14" value="" style="html=1;points=[];perimeter=orthogonalPerimeter;" parent="jB8EC2jtaiV8_9WjrZOE-3" vertex="1">
          <mxGeometry x="35" y="450" width="10" height="110" as="geometry" />
        </mxCell>
        <mxCell id="jB8EC2jtaiV8_9WjrZOE-13" value="запрос оплаты" style="html=1;verticalAlign=bottom;endArrow=block;rounded=0;" parent="jB8EC2jtaiV8_9WjrZOE-3" source="5P6IDjR8-ZtZ2jc4AADI-9" edge="1">
          <mxGeometry width="80" relative="1" as="geometry">
            <mxPoint x="-115" y="450" as="sourcePoint" />
            <mxPoint x="35.00000000000023" y="450" as="targetPoint" />
          </mxGeometry>
        </mxCell>
        <mxCell id="jB8EC2jtaiV8_9WjrZOE-15" value="подтверждение оплаты" style="html=1;verticalAlign=bottom;endArrow=open;dashed=1;endSize=8;rounded=0;" parent="1" edge="1">
          <mxGeometry relative="1" as="geometry">
            <mxPoint x="834" y="962.44" as="sourcePoint" />
            <mxPoint x="204.00000000000023" y="962.44" as="targetPoint" />
          </mxGeometry>
        </mxCell>
        <mxCell id="jB8EC2jtaiV8_9WjrZOE-16" value="оплата" style="html=1;verticalAlign=bottom;endArrow=block;rounded=0;" parent="1" edge="1">
          <mxGeometry width="80" relative="1" as="geometry">
            <mxPoint x="204" y="982" as="sourcePoint" />
            <mxPoint x="834.0000000000002" y="982" as="targetPoint" />
          </mxGeometry>
        </mxCell>
        <mxCell id="jB8EC2jtaiV8_9WjrZOE-17" value="подтверждение записи на соревнования" style="html=1;verticalAlign=bottom;endArrow=open;dashed=1;endSize=8;rounded=0;" parent="1" target="5P6IDjR8-ZtZ2jc4AADI-9" edge="1">
          <mxGeometry relative="1" as="geometry">
            <mxPoint x="834" y="1022" as="sourcePoint" />
            <mxPoint x="204" y="1022" as="targetPoint" />
          </mxGeometry>
        </mxCell>
        <mxCell id="5P6IDjR8-ZtZ2jc4AADI-16" value="уведомления о ходе соревнований" style="html=1;verticalAlign=bottom;endArrow=open;dashed=1;endSize=8;rounded=0;" parent="1" edge="1">
          <mxGeometry x="0.0007" relative="1" as="geometry">
            <mxPoint x="674.0000000000001" y="1142" as="sourcePoint" />
            <mxPoint x="204" y="1142" as="targetPoint" />
            <mxPoint as="offset" />
          </mxGeometry>
        </mxCell>
        <mxCell id="jB8EC2jtaiV8_9WjrZOE-19" value="запись на соревнование" style="html=1;verticalAlign=bottom;endArrow=block;rounded=0;" parent="1" source="5P6IDjR8-ZtZ2jc4AADI-9" target="jB8EC2jtaiV8_9WjrZOE-9" edge="1">
          <mxGeometry width="80" relative="1" as="geometry">
            <mxPoint x="524" y="1062" as="sourcePoint" />
            <mxPoint x="604" y="1062" as="targetPoint" />
          </mxGeometry>
        </mxCell>
        <mxCell id="jB8EC2jtaiV8_9WjrZOE-20" value="подтверждение записи" style="html=1;verticalAlign=bottom;endArrow=open;dashed=1;endSize=8;rounded=0;" parent="1" edge="1">
          <mxGeometry relative="1" as="geometry">
            <mxPoint x="514" y="1102" as="sourcePoint" />
            <mxPoint x="204" y="1102" as="targetPoint" />
          </mxGeometry>
        </mxCell>
      </root>
    </mxGraphModel>
  </diagram>
</mxfile>
